:FULLY-SPECIFIED
:FORCE-ALL-JOINTS-BE-3DOF
:DEGREES
34
root 5.97543 16.9087 -28.0708 0 0 0
lfemur -20.2829 1.47924 -19.799
ltibia 0 0 0
lfoot -35.7517 4.18652 0.000169102
ltoes 0 0 0
rfemur -16.9637 6.07867 19.5059
rtibia 30.7116 -0 0
rfoot 0 0 0
rtoes 0 0 0
lowerback 0 0 0
upperback 0 0 0
thorax 0.993349 1.6463 1.33975
lowerneck -9.5759 -1.62418 2.74102
upperneck -2.77178 -2.43639 0.768362
head 0.704344 -1.22393 -0.301036
lclavicle 0 0 0
lhumerus 0 0 0
lradius 0 0 0
lwrist 0 0 0
lhand -11.6289 4.0167 0.00270436
lfingers 0 0 0
lthumb 0 0 0
rclavicle 0 0 0
rhumerus -40.5794 -5.02265 -89.0083
rradius 0 0 0
rwrist 10.7577 0 0
rhand 0 0 0
rfingers 0 0 0
rthumb 0 0 0
35
root 5.96812 16.909 -28.0719 0 0 0
lfemur -20.3108 1.45407 -19.8003
ltibia 0 0 0
lfoot -35.6548 4.18985 0.000151643
ltoes 0 0 0
rfemur -16.9568 6.09428 19.4987
rtibia 30.6517 -0 0
rfoot 0 0 0
rtoes 0 0 0
lowerback 0 0 0
upperback 0 0 0
thorax 1.07488 1.62232 1.16155
lowerneck -9.56353 -1.60466 2.78316
upperneck -2.81395 -2.41421 0.85841
head 0.689544 -1.21229 -0.278853
lclavicle 0 0 0
lhumerus 0 0 0
lradius 0 0 0
lwrist 0 0 0
lhand -11.6726 3.89848 0.00242514
lfingers 0 0 0
lthumb 0 0 0
rclavicle 0 0 0
rhumerus -40.5083 -5.02082 -89.1658
rradius 0 0 0
rwrist 10.7713 0 0
rhand 0 0 0
rfingers 0 0 0
rthumb 0 0 0
36
root 5.96103 16.9089 -28.0731 0 0 0
lfemur -20.337 1.43037 -19.8016
ltibia 0 0 0
lfoot -35.5635 4.19299 0.000130042
ltoes 0 0 0
rfemur -16.9503 6.10899 19.4919
rtibia 30.5953 -0 0
rfoot 0 0 0
rtoes 0 0 0
lowerback 0 0 0
upperback 0 0 0
thorax 1.15172 1.59997 0.993686
lowerneck -9.55187 -1.58629 2.82285
upperneck -2.85364 -2.39327 0.9432
head 0.67561 -1.20132 -0.257963
lclavicle 0 0 0
lhumerus 0 0 0
lradius 0 0 0
lwrist 0 0 0
lhand -11.7138 3.78715 0.00207969
lfingers 0 0 0
lthumb 0 0 0
rclavicle 0 0 0
rhumerus -40.4414 -5.01892 -89.3141
rradius 0 0 0
rwrist 10.7842 0 0
rhand 0 0 0
rfingers 0 0 0
rthumb 0 0 0
37
root 5.95419 16.9086 -28.0745 0 0 0
lfemur -20.3611 1.40852 -19.8028
ltibia 0 0 0
lfoot -35.4793 4.19588 0.000105712
ltoes 0 0 0
rfemur -16.9443 6.12253 19.4856
rtibia 30.5433 -0 0
rfoot 0 0 0
rtoes 0 0 0
lowerback 0 0 0
upperback 0 0 0
thorax 1.22259 1.57958 0.839001
lowerneck -9.54112 -1.56936 2.85942
upperneck -2.89018 -2.37393 1.02131
head 0.662775 -1.19121 -0.238719
lclavicle 0 0 0
lhumerus 0 0 0
lradius 0 0 0
lwrist 0 0 0
lhand -11.7518 3.68457 0.00169059
lfingers 0 0 0
lthumb 0 0 0
rclavicle 0 0 0
rhumerus -40.3797 -5.01701 -89.4507
rradius 0 0 0
rwrist 10.796 0 0
rhand 0 0 0
rfingers 0 0 0
rthumb 0 0 0
38
root 5.94764 16.9079 -28.076 0 0 0
lfemur -20.3828 1.38895 -19.8039
ltibia 0 0 0
lfoot -35.4039 4.19848 8.02946e-05
ltoes 0 0 0
rfemur -16.939 6.13468 19.48
rtibia 30.4967 -0 0
rfoot 0 0 0
rtoes 0 0 0
lowerback 0 0 0
upperback 0 0 0
thorax 1.28615 1.56146 0.700331
lowerneck -9.53147 -1.5542 2.8922
upperneck -2.9229 -2.35654 1.09131
head 0.651274 -1.18215 -0.221472
lclavicle 0 0 0
lhumerus 0 0 0
lradius 0 0 0
lwrist 0 0 0
lhand -11.7858 3.59263 0.00128411
lfingers 0 0 0
lthumb 0 0 0
rclavicle 0 0 0
rhumerus -40.3245 -5.01518 -89.5731
rradius 0 0 0
rwrist 10.8066 0 0
rhand 0 0 0
rfingers 0 0 0
rthumb 0 0 0
39
root 5.9414 16.9069 -28.0775 0 0 0
lfemur -20.4015 1.37203 -19.8048
ltibia 0 0 0
lfoot -35.3388 4.20072 5.55881e-05
ltoes 0 0 0
rfemur -16.9343 6.14517 19.4751
rtibia 30.4564 -0 0
rfoot 0 0 0
rtoes 0 0 0
lowerback 0 0 0
upperback 0 0 0
thorax 1.3411 1.54593 0.580512
lowerneck -9.52313 -1.5411 2.92052
upperneck -2.95116 -2.34149 1.15178
head 0.641339 -1.17431 -0.206573
lclavicle 0 0 0
lhumerus 0 0 0
lradius 0 0 0
lwrist 0 0 0
lhand -11.8151 3.51319 0.000888987
lfingers 0 0 0
lthumb 0 0 0
rclavicle 0 0 0
rhumerus -40.2767 -5.0135 -89.6789
rradius 0 0 0
rwrist 10.8158 0 0
rhand 0 0 0
rfingers 0 0 0
rthumb 0 0 0
40
root 5.9355 16.9055 -28.0792 0 0 0
lfemur -20.4168 1.35818 -19.8055
ltibia 0 0 0
lfoot -35.2855 4.20255 3.34593e-05
ltoes 0 0 0
rfemur -16.9305 6.15376 19.4711
rtibia 30.4235 -0 0
rfoot 0 0 0
rtoes 0 0 0
lowerback 0 0 0
upperback 0 0 0
thorax 1.38612 1.5333 0.482382
lowerneck -9.51629 -1.53038 2.94372
upperneck -2.97429 -2.32915 1.20129
head 0.633206 -1.16789 -0.194373
lclavicle 0 0 0
lhumerus 0 0 0
lradius 0 0 0
lwrist 0 0 0
lhand -11.8392 3.44815 0.000535094
lfingers 0 0 0
lthumb 0 0 0
rclavicle 0 0 0
rhumerus -40.2376 -5.01206 -89.7656
rradius 0 0 0
rwrist 10.8233 0 0
rhand 0 0 0
rfingers 0 0 0
rthumb 0 0 0
41
root 5.92997 16.9037 -28.081 0 0 0
lfemur -20.4283 1.34779 -19.806
ltibia 0 0 0
lfoot -35.2455 4.20393 1.57419e-05
ltoes 0 0 0
rfemur -16.9277 6.16021 19.4681
rtibia 30.3987 -0 0
rfoot 0 0 0
rtoes 0 0 0
lowerback 0 0 0
upperback 0 0 0
thorax 1.4199 1.52388 0.408779
lowerneck -9.51116 -1.52234 2.96112
upperneck -2.99162 -2.31988 1.23842
head 0.627106 -1.16308 -0.185224
lclavicle 0 0 0
lhumerus 0 0 0
lradius 0 0 0
lwrist 0 0 0
lhand -11.8572 3.39936 0.000251751
lfingers 0 0 0
lthumb 0 0 0
rclavicle 0 0 0
rhumerus -40.2083 -5.01094 -89.8305
rradius 0 0 0
rwrist 10.8289 0 0
rhand 0 0 0
rfingers 0 0 0
rthumb 0 0 0
42
root 5.92483 16.9014 -28.0829 0 0 0
lfemur -20.4355 1.34126 -19.8064
ltibia 0 0 0
lfoot -35.2203 4.20479 4.1205e-06
ltoes 0 0 0
rfemur -16.9259 6.16426 19.4663
rtibia 30.3832 -0 0
rfoot 0 0 0
rtoes 0 0 0
lowerback 0 0 0
upperback 0 0 0
thorax 1.44112 1.51798 0.362538
lowerneck -9.50794 -1.51729 2.97205
upperneck -3.00251 -2.31404 1.26174
head 0.623275 -1.16005 -0.179477
lclavicle 0 0 0
lhumerus 0 0 0
lradius 0 0 0
lwrist 0 0 0
lhand -11.8686 3.36871 6.58965e-05
lfingers 0 0 0
lthumb 0 0 0
rclavicle 0 0 0
rhumerus -40.1899 -5.01022 -89.8713
rradius 0 0 0
rwrist 10.8325 0 0
rhand 0 0 0
rfingers 0 0 0
rthumb 0 0 0
43
root 5.92012 16.8987 -28.0848 10.2066 -1.52826 -1.97555
lfemur -20.438 1.339 -19.8065
ltibia 33.9 0 0
lfoot -35.2116 4.20509 0
ltoes 35.2088 0 0
rfemur -16.9253 6.16566 19.4656
rtibia 30.3778 0 0
rfoot -27.1417 -18.6675 0
rtoes 10.5318 0 0
lowerback -5.78587 2.27459 -0.104052
upperback -1.73151 3.03465 0.0764956
thorax 1.44849 1.51594 0.346495
lowerneck -9.50682 -1.51554 2.97584
upperneck -3.00629 -2.31202 1.26983
head 0.621946 -1.159 -0.177483
lclavicle -2.5842e-15 6.16232e-15 0
lhumerus -41.4063 -13.1444 96.3548
lradius 40.4448 0 0
lwrist 6.71755 0 0
lhand -11.8725 3.35808 0
lfingers 7.12502 0 0
lthumb 14.1799 32.8541 0
rclavicle -2.5842e-15 6.16232e-15 0
rhumerus -40.1835 -5.00997 -89.8855
rradius 38.9467 0 0
rwrist 10.8337 0 0
rhand -26.6893 -20.4074 0
rfingers 7.12502 0 0
rthumb -0.120043 -50.3871 0
44
root 5.91531 16.8954 -28.0877 0 0 0
lfemur -20.8029 1.70141 -19.7315
ltibia 34.3906 -0 0
lfoot -34.8469 3.73398 -0.0522638
ltoes 0 0 0
rfemur 0 0 0
rtibia 30.3862 -0 0
rfoot -27.144 -18.6405 -1.86553e-05
rtoes 0 0 0
lowerback 0 0 0
upperback 0 0 0
thorax 1.43327 1.51487 0.280793
lowerneck 0 0 0
upperneck -3.07324 -2.33788 1.29468
head 0.603263 -1.17198 -0.165767
lclavicle 0 0 0
lhumerus 0 0 0
lradius 40.5405 -0 0
lwrist 6.74233 0 0
lhand 0 0 0
lfingers 0 0 0
lthumb 14.1958 32.8253 -0.000137887
rclavicle 0 0 0
rhumerus 0 0 0
rradius 39.0393 -0 0
rwrist 10.7332 0 0
rhand 0 0 0
rfingers 0 0 0
rthumb 0 0 0
45
root 5.90994 16.8914 -28.0924 0 0 0
lfemur -21.272 2.16865 -19.6383
ltibia 35.0223 -0 0
lfoot -34.3768 3.12702 -0.115126
ltoes 0 0 0
rfemur 0 0 0
rtibia 30.397 -0 0
rfoot -27.147 -18.6058 -4.10783e-05
rtoes 0 0 0
lowerback 0 0 0
upperback 0 0 0
thorax 1.41367 1.51348 0.196212
lowerneck 0 0 0
upperneck -3.15944 -2.37112 1.32671
head 0.579207 -1.18867 -0.150679
lclavicle 0 0 0
lhumerus 0 0 0
lradius 40.6638 -0 0
lwrist 6.77423 0 0
lhand 0 0 0
lfingers 0 0 0
lthumb 14.2163 32.7883 -0.000303622
rclavicle 0 0 0
rhumerus 0 0 0
rradius 39.1586 -0 0
rwrist 10.6037 0 0
rhand 0 0 0
rfingers 0 0 0
rthumb 0 0 0
46
root 5.90416 16.8868 -28.0985 0 0 0
lfemur -21.8324 2.72865 -19.5317
ltibia 35.7779 -0 0
lfoot -33.8136 2.40019 -0.183786
ltoes 0 0 0
rfemur 0 0 0
rtibia 30.4099 -0 0
rfoot -27.1505 -18.5642 -6.55496e-05
rtoes 0 0 0
lowerback 0 0 0
upperback 0 0 0
thorax 1.39023 1.51177 0.0950171
lowerneck 0 0 0
upperneck -3.26261 -2.41084 1.3651
head 0.55042 -1.20864 -0.132617
lclavicle 0 0 0
lhumerus 0 0 0
lradius 40.8112 -0 0
lwrist 6.81239 0 0
lhand 0 0 0
lfingers 0 0 0
lthumb 14.2409 32.744 -0.000484498
rclavicle 0 0 0
rhumerus 0 0 0
rradius 39.3012 -0 0
rwrist 10.4489 0 0
rhand 0 0 0
rfingers 0 0 0
rthumb 0 0 0
47
root 5.89809 16.8817 -28.1057 0 0 0
lfemur -22.4715 3.36929 -19.4168
ltibia 36.6408 -0 0
lfoot -33.1695 1.56952 -0.253432
ltoes 0 0 0
rfemur 0 0 0
rtibia 30.4247 -0 0
rfoot -27.1545 -18.5167 -9.03523e-05
rtoes 0 0 0
lowerback 0 0 0
upperback 0 0 0
thorax 1.36347 1.50976 -0.0205252
lowerneck 0 0 0
upperneck -3.38044 -2.4561 1.40903
head 0.517544 -1.23143 -0.111982
lclavicle 0 0 0
lhumerus 0 0 0
lradius 40.9796 -0 0
lwrist 6.85597 0 0
lhand 0 0 0
lfingers 0 0 0
lthumb 14.2689 32.6934 -0.000667823
rclavicle 0 0 0
rhumerus 0 0 0
rradius 39.4641 -0 0
rwrist 10.2721 0 0
rhand 0 0 0
rfingers 0 0 0
rthumb 0 0 0
48
root 5.89186 16.876 -28.114 0 0 0
lfemur -23.1764 4.07835 -19.298
ltibia 37.5938 -0 0
lfoot -32.4569 0.651135 -0.319494
ltoes 0 0 0
rfemur 0 0 0
rtibia 30.441 -0 0
rfoot -27.159 -18.4643 -0.000113859
rtoes 0 0 0
lowerback 0 0 0
upperback 0 0 0
thorax 1.33391 1.50749 -0.148149
lowerneck 0 0 0
upperneck -3.51063 -2.50599 1.45766
head 0.481219 -1.25659 -0.0891731
lclavicle 0 0 0
lhumerus 0 0 0
lradius 41.1656 -0 0
lwrist 6.9041 0 0
lhand 0 0 0
lfingers 0 0 0
lthumb 14.2998 32.6375 -0.00084157
rclavicle 0 0 0
rhumerus 0 0 0
rradius 39.6441 -0 0
rwrist 10.0768 0 0
rhand 0 0 0
rfingers 0 0 0
rthumb 0 0 0
